<svg xmlns="http://www.w3.org/2000/svg" viewBox="0 0 640 360" role="img" aria-labelledby="title desc">
  <title id="title">ContriSonics preview illustration</title>
  <desc id="desc">Abstract representation of the ContriSonics interface with panels and waveform.</desc>
  <defs>
    <linearGradient id="bg" x1="0" y1="0" x2="1" y2="1">
      <stop offset="0%" stop-color="#18181b" />
      <stop offset="100%" stop-color="#3f3f46" />
    </linearGradient>
  </defs>
  <rect width="640" height="360" fill="url(#bg)" rx="24" />
  <g opacity="0.9" transform="translate(60 60)">
    <rect width="220" height="140" rx="18" fill="#18181b" stroke="#27272a" stroke-width="4" />
    <rect x="28" y="32" width="164" height="28" rx="14" fill="#52525b" opacity="0.4" />
    <rect x="28" y="76" width="112" height="20" rx="10" fill="#71717a" opacity="0.5" />
    <rect x="28" y="106" width="74" height="20" rx="10" fill="#71717a" opacity="0.35" />
  </g>
  <g transform="translate(330 96)">
    <polyline points="0,120 36,92 72,124 108,68 144,88 180,36 216,52" fill="none" stroke="#38bdf8" stroke-width="10" stroke-linecap="round" stroke-linejoin="round" opacity="0.75" />
    <polyline points="0,146 36,118 72,150 108,94 144,114 180,62 216,78" fill="none" stroke="#c084fc" stroke-width="10" stroke-linecap="round" stroke-linejoin="round" opacity="0.45" />
  </g>
  <g transform="translate(60 230)" opacity="0.8">
    <rect width="520" height="70" rx="16" fill="#18181b" stroke="#27272a" stroke-width="4" />
    <rect x="28" y="20" width="120" height="30" rx="15" fill="#6366f1" opacity="0.65" />
    <rect x="168" y="20" width="90" height="30" rx="15" fill="#22d3ee" opacity="0.55" />
    <rect x="278" y="20" width="170" height="30" rx="15" fill="#f97316" opacity="0.45" />
  </g>
</svg>
